HIERARCHY
ROOT Hips
{
	OFFSET 0.00000 0.00000 0.00000
	CHANNELS 6 Xposition Yposition Zposition Zrotation Yrotation Xrotation 
	JOINT LHipJoint
	{
		OFFSET 0 0 0
		CHANNELS 3 Zrotation Yrotation Xrotation
		JOINT LeftUpLeg
		{
			OFFSET 1.62964 -1.40469 0.78906
			CHANNELS 3 Zrotation Yrotation Xrotation
			JOINT LeftLeg
			{
				OFFSET 2.29640 -6.30932 0.00000
				CHANNELS 3 Zrotation Yrotation Xrotation
				JOINT LeftFoot
				{
					OFFSET 2.29451 -6.30412 0.00000
					CHANNELS 3 Zrotation Yrotation Xrotation
					JOINT LeftToeBase
					{
						OFFSET 0.03611 -0.09921 1.56387
						CHANNELS 3 Zrotation Yrotation Xrotation
						End Site
						{
							OFFSET 0.00000 -0.00000 0.80291
						}
					}
				}
			}
		}
	}
	JOINT RHipJoint
	{
		OFFSET 0 0 0
		CHANNELS 3 Zrotation Yrotation Xrotation
		JOINT RightUpLeg
		{
			OFFSET -1.73712 -1.40469 0.78906
			CHANNELS 3 Zrotation Yrotation Xrotation
			JOINT RightLeg
			{
				OFFSET -2.28137 -6.26801 0.00000
				CHANNELS 3 Zrotation Yrotation Xrotation
				JOINT RightFoot
				{
					OFFSET -2.28681 -6.28298 0.00000
					CHANNELS 3 Zrotation Yrotation Xrotation
					JOINT RightToeBase
					{
						OFFSET -0.15927 -0.43759 1.61103
						CHANNELS 3 Zrotation Yrotation Xrotation
						End Site
						{
							OFFSET -0.00000 -0.00000 0.84630
						}
					}
				}
			}
		}
	}
	JOINT LowerBack
	{
		OFFSET 0 0 0
		CHANNELS 3 Zrotation Yrotation Xrotation
		JOINT Spine
		{
			OFFSET -0.04227 2.04338 -0.00225
			CHANNELS 3 Zrotation Yrotation Xrotation
			JOINT Spine1
			{
				OFFSET -0.02148 2.04482 -0.04273
				CHANNELS 3 Zrotation Yrotation Xrotation
				JOINT Neck
				{
					OFFSET 0 0 0
					CHANNELS 3 Zrotation Yrotation Xrotation
					JOINT Neck1
					{
						OFFSET 0.09180 1.44629 0.19359
						CHANNELS 3 Zrotation Yrotation Xrotation
						JOINT Head
						{
							OFFSET 0.00887 1.40645 0.14750
							CHANNELS 3 Zrotation Yrotation Xrotation
							End Site
							{
								OFFSET -0.00669 1.50671 0.03707
							}
						}
					}
				}
				JOINT LeftShoulder
				{
					OFFSET 0 0 0
					CHANNELS 3 Zrotation Yrotation Xrotation
					JOINT LeftArm
					{
						OFFSET 2.17674 1.86763 -0.06520
						CHANNELS 3 Zrotation Yrotation Xrotation
						JOINT LeftForeArm
						{
							OFFSET 4.65776 -0.00000 0.00000
							CHANNELS 3 Zrotation Yrotation Xrotation
							JOINT LeftHand
							{
								OFFSET 3.55539 -0.00000 0.00000
								CHANNELS 3 Zrotation Yrotation Xrotation
								JOINT LeftFingerBase
								{
									OFFSET 0 0 0
									CHANNELS 3 Zrotation Yrotation Xrotation
									JOINT LeftHandIndex1
									{
										OFFSET 0.70726 -0.00000 0.00000
										CHANNELS 3 Zrotation Yrotation Xrotation
										End Site
										{
											OFFSET 0.57022 -0.00000 0.00000
										}
									}
								}
								JOINT LThumb
								{
									OFFSET 0 0 0
									CHANNELS 3 Zrotation Yrotation Xrotation
									End Site
									{
										OFFSET 0.57892 -0.00000 0.57892
									}
								}
							}
						}
					}
				}
				JOINT RightShoulder
				{
					OFFSET 0 0 0
					CHANNELS 3 Zrotation Yrotation Xrotation
					JOINT RightArm
					{
						OFFSET -2.80694 1.55459 -0.32496
						CHANNELS 3 Zrotation Yrotation Xrotation
						JOINT RightForeArm
						{
							OFFSET -4.71925 -0.00000 -0.00000
							CHANNELS 3 Zrotation Yrotation Xrotation
							JOINT RightHand
							{
								OFFSET -3.56990 -0.00000 0.00000
								CHANNELS 3 Zrotation Yrotation Xrotation
								JOINT RightFingerBase
								{
									OFFSET 0 0 0
									CHANNELS 3 Zrotation Yrotation Xrotation
									JOINT RightHandIndex1
									{
										OFFSET -0.50776 -0.00000 0.00000
										CHANNELS 3 Zrotation Yrotation Xrotation
										End Site
										{
											OFFSET -0.40937 -0.00000 0.00000
										}
									}
								}
								JOINT RThumb
								{
									OFFSET 0 0 0
									CHANNELS 3 Zrotation Yrotation Xrotation
									End Site
									{
										OFFSET -0.41562 -0.00000 0.41562
									}
								}
							}
						}
					}
				}
			}
		}
	}
}
MOTION
Frames: 14
Frame Time: .0083333
16.3036 15.9413 18.2174 170.1070 -2.3283 -168.2660 0.0000 0.0000 0.0000 -0.5815 -20.1480 -68.4547 4.7343 13.0781 39.6617 0.1022 3.9108 5.9114 2.6302 -10.0709 -29.2068 0.0000 0.0000 0.0000 16.3658 11.2266 -1.1414 -1.6658 -8.1322 23.1164 -2.9651 0.8248 -32.4250 -2.5537 9.9348 -28.7659 -6.3435 -2.0114 -24.2257 -0.6980 -0.7744 2.3306 2.5159 -0.9244 16.5572 -1.2052 3.2746 -1.9515 -0.0031 3.2722 19.7656 0.3352 0.9608 6.2841 0.0000 0.0000 0.0000 -85.2868 3.9420 18.8910 11.2784 -18.7137 -1.8643 -0.0000 -0.0000 5.9921 21.8168 -12.9371 -5.1213 -7.1250 0.0000 -0.0000 -3.7855 16.1021 2.5928 0.0000 0.0000 0.0000 88.6563 -5.2506 9.0840 -18.6959 29.0391 -4.8824 0.0000 -0.0000 -2.3801 -15.4119 -52.6471 12.3600 7.1250 -0.0000 -0.0000 63.9623 -76.9467 -51.4049
16.2688 15.9308 18.1457 170.0860 -2.1909 -168.2580 0.0000 0.0000 0.0000 -0.4948 -20.1452 -68.1818 4.6257 12.9495 39.1797 0.1136 4.1444 6.2392 2.5789 -9.9800 -28.9121 0.0000 0.0000 0.0000 16.2119 11.2092 -0.9705 -1.6873 -8.1819 23.2679 -3.0154 1.2312 -32.5927 -2.4106 9.6734 -27.9255 -6.2500 -1.9232 -24.4566 -0.7486 -0.6601 2.3498 2.4432 -0.8672 16.7034 -1.0090 3.2559 -1.8991 -0.0688 3.2202 19.8917 0.2777 0.9355 6.3204 -0.0000 0.0000 0.0000 -85.2265 4.0477 19.1154 11.3417 -18.8101 -1.8846 -0.0000 -0.0000 5.8120 21.7030 -12.9417 -5.0938 -7.1250 0.0000 -0.0000 -3.8643 16.1085 2.6465 -0.0000 0.0000 0.0000 88.7576 -5.3383 9.1325 -19.1696 29.6289 -5.1144 0.0000 -0.0000 -1.6666 -14.7152 -58.8802 12.6713 7.1250 -0.0000 -0.0000 91.6115 -77.1338 -78.4551
16.2350 15.9184 18.0763 170.0750 -2.1213 -168.2940 0.0000 0.0000 0.0000 -0.5115 -20.1423 -67.9185 4.5293 12.8332 38.7473 0.1367 4.2162 6.7689 2.5913 -10.0021 -28.9834 0.0000 0.0000 0.0000 16.1226 11.1991 -0.7284 -1.7009 -8.2130 23.3630 -3.0088 1.3847 -32.5151 -2.4608 9.7663 -28.2231 -6.1555 -1.8728 -24.5183 -0.7828 -0.6120 2.3538 2.3665 -0.8363 16.7378 -1.0589 3.2753 -1.8780 0.1674 3.1913 20.0172 0.3591 0.9275 6.3514 0.0000 -0.0000 0.0000 -85.2188 4.1913 19.1971 11.4247 -18.9363 -1.9115 -0.0000 -0.0000 5.7860 21.5300 -12.9828 -5.0650 -7.1250 0.0000 -0.0000 -3.9855 16.0821 2.7322 0.0000 -0.0000 0.0000 88.8535 -5.3942 9.0713 -19.3114 29.8038 -5.1847 0.0000 -0.0000 -1.2696 -12.7996 -60.6531 11.2015 7.1250 -0.0000 -0.0000 84.2340 76.2019 98.2026
16.2013 15.9050 18.0089 170.1560 -2.1173 -168.3070 0.0000 0.0000 0.0000 -0.4728 -20.1293 -67.7787 4.4644 12.7540 38.4544 0.1655 4.2797 7.3809 2.7310 -10.2462 -29.7778 0.0000 0.0000 0.0000 16.1633 11.1900 -0.4275 -1.6985 -8.2076 23.3465 -2.9569 1.1993 -32.2755 -2.6432 10.0937 -29.2806 -5.9512 -1.8309 -24.5051 -0.7712 -0.6230 2.3106 2.2600 -0.8205 16.6730 -1.2487 3.3229 -1.7540 0.3957 3.2175 20.0311 0.4627 0.9385 6.3263 0.0000 -0.0000 0.0000 -85.2522 4.4057 19.3479 11.4678 -19.0018 -1.9255 -0.0000 -0.0000 5.7353 21.7505 -12.6632 -4.9985 -7.1250 0.0000 -0.0000 -3.8199 16.4004 2.5918 0.0000 -0.0000 0.0000 88.8867 -5.4479 9.6221 -19.3184 29.8124 -5.1882 0.0000 -0.0000 -2.8390 -12.7090 -60.0734 11.0593 7.1250 -0.0000 -0.0000 95.8156 -76.2457 -81.8963
16.1661 15.8919 17.9439 170.3190 -2.1691 -168.2290 0.0000 0.0000 0.0000 -0.2944 -20.1543 -67.7822 4.4294 12.7109 38.2955 0.1826 4.3342 7.7245 2.7302 -10.2450 -29.7737 0.0000 0.0000 0.0000 16.2270 11.0818 -0.3419 -1.7204 -8.2577 23.4996 -2.9390 1.2334 -32.1659 -2.8261 10.4081 -30.3085 -5.7092 -1.8361 -24.5714 -0.7045 -0.7064 2.2995 2.1678 -0.8381 16.7017 -1.2981 3.3359 -1.7528 0.3454 3.2534 19.9887 0.4570 0.9507 6.3123 0.0000 -0.0000 0.0000 -85.3364 4.4416 19.3740 11.4630 -18.9945 -1.9239 -0.0000 -0.0000 5.6385 21.9506 -12.2741 -4.8970 -7.1250 0.0000 -0.0000 -3.6653 16.7960 2.4549 0.0000 -0.0000 0.0000 88.8191 -5.3316 9.3698 -19.1536 29.6091 -5.1065 0.0000 -0.0000 -2.3332 -14.1296 -54.7993 11.6236 7.1250 -0.0000 -0.0000 73.5018 -76.9548 -60.2816
16.1347 15.8858 17.8770 170.3190 -2.0968 -168.1420 0.0000 0.0000 0.0000 -0.4030 -20.0163 -67.6531 4.3693 12.6362 38.0216 0.1983 4.2750 8.0137 2.6113 -10.0375 -29.0981 0.0000 0.0000 0.0000 16.0518 10.8325 -0.4189 -1.7691 -8.3676 23.8362 -2.9710 1.5180 -32.2695 -3.0483 10.7729 -31.5177 -5.7448 -1.8717 -24.6443 -0.6365 -0.7463 2.3078 2.2520 -0.8642 16.7606 -1.2327 3.3386 -1.8183 0.0915 3.2927 20.0555 0.3687 0.9523 6.3509 -0.0000 -0.0000 0.0000 -85.4912 4.4164 19.2283 11.4639 -18.9958 -1.9242 -0.0000 -0.0000 5.6749 21.7229 -12.4834 -4.9221 -7.1250 0.0000 -0.0000 -3.8318 16.5948 2.5837 -0.0000 -0.0000 0.0000 88.7150 -5.3202 9.6461 -19.3793 29.8872 -5.2185 0.0000 -0.0000 -2.3852 -15.2446 -56.2394 12.7661 7.1250 -0.0000 -0.0000 79.8855 -77.5113 -67.0610
16.0982 15.8752 17.8113 170.4500 -2.0370 -168.0160 0.0000 0.0000 0.0000 -0.3289 -19.8899 -67.7046 4.3503 12.6124 37.9345 0.2143 4.1566 8.2953 2.5383 -9.9072 -28.6766 0.0000 0.0000 0.0000 16.0157 10.6946 -0.4583 -1.8039 -8.4452 24.0746 -3.0068 2.0189 -32.3420 -3.0121 10.7146 -31.3233 -5.6018 -1.9187 -24.6596 -0.4884 -0.8720 2.2790 2.2969 -0.9134 16.7444 -1.4697 3.4049 -1.8078 0.0516 3.4144 20.0034 0.4023 0.9926 6.3280 0.0000 0.0000 0.0000 -85.7844 4.4491 18.8720 11.4444 -18.9663 -1.9179 -0.0000 -0.0000 5.9200 21.3606 -12.8912 -4.9867 -7.1250 0.0000 -0.0000 -4.0987 16.1962 2.8000 0.0000 0.0000 0.0000 88.4491 -5.0303 9.5617 -19.4808 30.0118 -5.2692 0.0000 -0.0000 -1.0031 -14.6524 -66.8992 13.5225 7.1250 -0.0000 -0.0000 108.2646 75.1554 123.3778
16.0609 15.8644 17.7461 170.5920 -2.0604 -168.0060 0.0000 0.0000 0.0000 -0.2634 -19.8853 -67.6499 4.3509 12.6132 37.9373 0.2281 4.0861 8.5355 2.4262 -9.7025 -28.0185 0.0000 0.0000 0.0000 16.1188 10.7273 -0.1565 -1.7992 -8.4347 24.0424 -2.9943 2.1288 -32.2458 -2.9189 10.5626 -30.8184 -5.4177 -1.7782 -24.5369 -0.5245 -0.7533 2.1639 2.1976 -0.8372 16.5135 -1.1972 3.4038 -1.5297 0.1240 3.3268 20.1847 0.3702 0.9563 6.3419 -0.0000 0.0000 0.0000 -85.5626 4.7417 19.4165 11.4217 -18.9318 -1.9105 -0.0000 -0.0000 5.7868 21.2731 -12.8547 -4.9507 -7.1250 0.0000 -0.0000 -4.1578 16.2435 2.8364 -0.0000 0.0000 0.0000 88.6862 -5.1080 8.9719 -19.4879 30.0204 -5.2727 0.0000 -0.0000 -0.5166 -13.8014 -67.7489 12.8088 7.1250 -0.0000 -0.0000 109.9721 74.6373 125.5483
16.0257 15.8574 17.6704 170.5370 -2.0117 -168.0520 0.0000 0.0000 0.0000 -0.4833 -19.8564 -67.3476 4.3183 12.5723 37.7879 0.2416 4.1450 8.7792 2.3219 -9.5067 -27.3935 0.0000 0.0000 0.0000 16.0460 10.7672 0.3197 -1.7726 -8.3754 23.8602 -2.9478 1.8022 -32.0667 -2.9893 10.6778 -31.2007 -5.4791 -1.7903 -24.4999 -0.5138 -0.7526 2.1860 2.2459 -0.8431 16.5206 -1.1871 3.4173 -1.5048 0.1159 3.3429 20.1875 0.3664 0.9632 6.3388 -0.0000 0.0000 0.0000 -85.6448 4.8394 19.4111 11.4367 -18.9545 -1.9154 -0.0000 -0.0000 5.7442 21.0814 -12.7747 -4.8721 -7.1250 0.0000 -0.0000 -4.2873 16.3470 2.9156 -0.0000 0.0000 0.0000 88.6663 -5.1467 9.2233 -19.6607 30.2313 -5.3594 0.0000 -0.0000 -1.1491 -14.9592 -64.8709 13.5985 7.1250 -0.0000 -0.0000 101.9669 76.0025 116.4176
15.9879 15.8421 17.5963 170.6980 -2.0777 -168.0300 0.0000 0.0000 0.0000 -0.3596 -19.9161 -67.2783 4.3338 12.5919 37.8592 0.2487 4.2593 8.9128 2.1963 -9.2634 -26.6229 0.0000 0.0000 0.0000 16.1646 10.6360 0.5496 -1.7891 -8.4123 23.9737 -2.9309 1.6672 -32.0061 -3.0448 10.7672 -31.4986 -5.3377 -1.8539 -24.4674 -0.3992 -0.8934 2.2092 2.2463 -0.8979 16.5412 -1.2666 3.3367 -1.5709 0.0556 3.2437 20.2357 0.3557 0.9017 6.3659 0.0000 0.0000 0.0000 -85.8636 4.9204 19.0844 11.4930 -19.0399 -1.9337 -0.0000 -0.0000 5.8762 20.6306 -12.8511 -4.7866 -7.1250 0.0000 -0.0000 -4.6018 16.3092 3.1346 0.0000 0.0000 0.0000 88.5075 -5.0940 9.8864 -19.8254 30.4315 -5.4427 0.0000 -0.0000 -2.3044 -16.2540 -63.1784 14.5840 7.1250 -0.0000 -0.0000 97.2785 76.8403 110.8769
15.9499 15.8290 17.5262 170.8030 -1.9695 -168.0180 0.0000 0.0000 0.0000 -0.3576 -19.8129 -67.1710 4.3503 12.6125 37.9347 0.2571 4.4056 9.0716 2.1201 -9.1119 -26.1459 0.0000 0.0000 0.0000 16.1507 10.5694 0.5964 -1.8626 -8.5739 24.4713 -2.9630 1.9690 -32.1099 -2.9560 10.6234 -31.0202 -5.2463 -1.8390 -24.3168 -0.3369 -0.9148 2.2349 2.2610 -0.9003 16.4849 -1.3031 3.3143 -1.6384 0.0251 3.2305 20.2075 0.3524 0.8938 6.3686 0.0000 -0.0000 0.0000 -85.9121 4.9876 19.2029 11.5610 -19.1430 -1.9559 -0.0000 -0.0000 5.7231 20.3679 -12.7335 -4.6782 -7.1250 0.0000 -0.0000 -4.7797 16.4581 3.2411 0.0000 -0.0000 0.0000 88.3995 -4.9202 10.4646 -19.9317 30.5600 -5.4966 0.0000 -0.0000 -3.4360 -16.4431 -63.2606 14.7658 7.1250 -0.0000 -0.0000 97.7990 76.8653 111.3660
15.9158 15.8181 17.4621 170.8640 -1.8742 -167.9780 0.0000 0.0000 0.0000 -0.4768 -19.6255 -67.0889 4.3634 12.6289 37.9948 0.2774 4.5315 9.4189 2.0519 -8.9733 -25.7120 0.0000 0.0000 0.0000 16.1486 10.5925 0.7234 -1.9019 -8.6587 24.7333 -2.9697 2.0958 -32.1166 -2.9602 10.6303 -31.0430 -5.2083 -1.7969 -24.0997 -0.3471 -0.8746 2.3045 2.2447 -0.8765 16.4378 -1.3243 3.3503 -1.8258 0.1606 3.3064 20.0283 0.4069 0.9593 6.3403 -0.0000 0.0000 0.0000 -85.7959 4.8068 19.3984 11.5231 -19.0856 -1.9435 -0.0000 -0.0000 5.5741 20.2547 -12.7979 -4.6730 -7.1250 0.0000 -0.0000 -4.8601 16.4006 3.3021 -0.0000 0.0000 0.0000 88.4869 -4.6599 10.6070 -20.0272 30.6751 -5.5452 0.0000 -0.0000 -3.9798 -18.4981 -59.4838 16.0779 7.1250 -0.0000 -0.0000 84.5526 78.2323 96.4029
15.8713 15.8111 17.3838 170.7950 -1.6991 -167.9780 0.0000 0.0000 0.0000 -0.5613 -19.6641 -66.8200 4.3682 12.6349 38.0165 0.2757 4.9972 9.4475 1.8531 -8.5532 -24.4073 0.0000 0.0000 0.0000 15.9190 10.6255 1.1562 -1.8644 -8.5777 24.4831 -2.9374 2.0089 -31.9567 -3.1501 10.9341 -32.0581 -5.1236 -1.7208 -24.0928 -0.4734 -0.7834 2.2922 2.0825 -0.8209 16.4066 -1.2108 3.4224 -1.6231 0.2868 3.3305 20.1894 0.4261 0.9720 6.3561 -0.0000 -0.0000 0.0000 -85.6429 4.9513 19.4473 11.4359 -18.9534 -1.9151 -0.0000 -0.0000 5.6089 20.1518 -13.0693 -4.7437 -7.1250 0.0000 -0.0000 -4.9397 16.1243 3.3863 -0.0000 -0.0000 0.0000 88.7325 -4.6311 10.1340 -19.9846 30.6238 -5.5235 0.0000 -0.0000 -3.2755 -16.9229 -58.7406 14.5791 7.1250 -0.0000 -0.0000 91.9839 -77.8907 -79.6476
15.8332 15.7908 17.3246 171.2190 -1.9242 -167.6900 0.0000 0.0000 0.0000 0.0139 -19.7537 -67.3481 4.4829 12.7767 38.5381 0.2954 5.1230 9.7734 1.8130 -8.4653 -24.1365 0.0000 0.0000 0.0000 16.3367 10.6214 1.1588 -1.8510 -8.5485 24.3929 -2.9172 1.8945 -31.8717 -3.2064 11.0219 -32.3538 -4.7431 -1.7779 -23.9810 -0.3321 -1.0049 2.1696 1.9499 -0.8871 16.2005 -1.1038 1.5131 -1.5621 -0.2730 3.8768 20.3250 0.3980 2.4017 6.4118 -0.0000 0.0000 0.0000 -85.6617 5.1126 19.4035 11.4257 -18.9378 -1.9118 -0.0000 -0.0000 5.6205 20.1834 -12.9352 -4.7041 -7.1250 0.0000 -0.0000 -4.9137 16.2626 3.3535 -0.0000 0.0000 0.0000 88.7620 -4.2328 9.3231 -19.6161 30.1770 -5.3370 0.0000 -0.0000 -1.3948 -12.4416 -60.4869 10.8684 7.1250 -0.0000 -0.0000 83.3255 76.0841 97.3658
